<?xml version="1.0" encoding="UTF-8"?>
<!-- Created with Inkscape (http://www.inkscape.org/) -->
<svg width="297mm" height="210mm" version="1.1" viewBox="0 0 297 210" xmlns="http://www.w3.org/2000/svg" xmlns:cc="http://creativecommons.org/ns#" xmlns:dc="http://purl.org/dc/elements/1.1/" xmlns:rdf="http://www.w3.org/1999/02/22-rdf-syntax-ns#">
 <metadata>
  <rdf:RDF>
   <cc:Work rdf:about="">
    <dc:format>image/svg+xml</dc:format>
    <dc:type rdf:resource="http://purl.org/dc/dcmitype/StillImage"/>
    <dc:title/>
   </cc:Work>
  </rdf:RDF>
 </metadata>
 <g transform="translate(0,-87)">
  <g transform="matrix(.35278 0 0 -.35278 4.1266 323.64)">
   <g transform="translate(134.05 432.04)">
    <path d="m0 0h45.338v-20.6h-18.569v-19.521h16.533v-19.585h-16.533v-43.236h-26.769z" fill="#ec008c"/>
   </g>
   <g transform="translate(213.64 432.04)">
    <path d="m0 0v-82.343h16.276v-20.599h-43.047v102.94z" fill="#ec008c"/>
   </g>
   <g transform="translate(283.21 432.04)">
    <path d="m0 0-19.52-65.683v-37.259h-24.798v37.259l-18.822 65.683h24.592c3.842-20.094 6.009-33.615 6.5-40.567 1.483 10.984 3.97 24.505 7.457 40.567z" fill="#ec008c"/>
   </g>
   <g transform="translate(336.47 432.04)">
    <path d="m0 0v-20.6l-19.934-61.743h19.934v-20.599h-49.343v14.94l20.603 67.402h-18.184v20.6z" fill="#fff"/>
   </g>
   <g transform="translate(374.58 383.53)">
    <path d="m0 0v6.169c0 4.365-0.234 7.186-0.7 8.458-0.465 1.269-1.421 1.906-2.861 1.906-1.781 0-2.882-0.54-3.308-1.622-0.422-1.081-0.634-3.995-0.634-8.742v-6.169zm25.751-13.735h-33.254v-18.246c0-3.815 0.274-6.276 0.827-7.376 0.549-1.104 1.611-1.654 3.179-1.654 1.948 0 3.252 0.731 3.91 2.193 0.656 1.463 0.985 4.293 0.985 8.488v11.129h24.353v-6.232c0-5.213-0.329-9.219-0.985-12.017-0.658-2.797-2.194-5.786-4.61-8.965s-5.479-5.564-9.187-7.153c-3.71-1.59-8.364-2.385-13.959-2.385-5.424 0-10.214 0.785-14.368 2.351-4.155 1.569-7.387 3.72-9.698 6.455-2.31 2.735-3.91 5.745-4.8 9.03-0.892 3.284-1.335 8.064-1.335 14.337v24.608c0 7.374 0.995 13.195 2.989 17.453 1.991 4.261 5.255 7.525 9.791 9.793 4.537 2.267 9.75 3.404 15.643 3.404 7.206 0 13.15-1.37 17.835-4.103 4.684-2.734 7.969-6.359 9.854-10.872 1.887-4.517 2.83-10.866 2.83-19.045z" fill="#fff"/>
   </g>
   <g transform="translate(431.41 413.48)">
    <path d="m0 0-1.018-11.098c3.731 7.949 9.137 12.157 16.215 12.625v-29.694c-4.703 0-8.16-0.638-10.363-1.908-2.205-1.273-3.563-3.043-4.07-5.312-0.508-2.266-0.764-7.491-0.764-15.674v-33.316h-25.687v84.377z" fill="#fff"/>
   </g>
   <g transform="translate(478.71 413.48)">
    <path d="m0 0-0.445-8.026c1.992 3.181 4.365 5.572 7.121 7.163 2.754 1.592 5.89 2.39 9.41 2.39 6.867 0 12.273-3.188 16.215-9.553 2.162 3.181 4.599 5.572 7.312 7.163 2.713 1.592 5.723 2.39 9.03 2.39 4.367 0 7.978-1.061 10.839-3.181 2.864-2.118 4.698-4.716 5.502-7.787 0.803-3.075 1.207-8.068 1.207-14.975v-59.961h-24.925v55c0 7.207-0.245 11.669-0.731 13.384-0.488 1.718-1.621 2.576-3.4 2.576-1.824 0-3.002-0.849-3.53-2.541-0.531-1.698-0.796-6.169-0.796-13.419v-55h-24.924v53.602c0 8.267-0.201 13.224-0.606 14.879-0.402 1.654-1.515 2.479-3.336 2.479-1.144 0-2.123-0.435-2.927-1.304-0.805-0.868-1.25-1.928-1.334-3.179-0.086-1.25-0.127-3.91-0.127-7.98v-58.497h-24.926v84.377z" fill="#fff"/>
   </g>
   <g transform="translate(582.83 369.22)">
    <path d="m0 0c-4.113-3.01-6.498-5.53-7.154-7.564-0.658-2.037-0.987-4.961-0.987-8.776 0-4.367 0.286-7.185 0.856-8.456 0.574-1.271 1.711-1.908 3.404-1.908 1.61 0 2.662 0.498 3.149 1.494 0.488 0.994 0.732 3.614 0.732 7.854zm-8.141 11.572h-24.097v5.659c0 6.529 0.752 11.562 2.256 15.104 1.503 3.537 4.523 6.664 9.062 9.378 4.535 2.713 10.426 4.071 17.676 4.071 8.687 0 15.238-1.538 19.646-4.612 4.41-3.071 7.057-6.846 7.95-11.318 0.89-4.473 1.335-13.682 1.335-27.625v-42.349h-24.99v7.519c-1.568-3.015-3.592-5.277-6.07-6.784-2.482-1.51-5.438-2.261-8.871-2.261-4.494 0-8.617 1.26-12.369 3.782-3.75 2.522-5.625 8.047-5.625 16.563v6.932c0 6.315 0.996 10.62 2.988 12.906 1.99 2.291 6.928 4.962 14.814 8.014 8.438 3.305 12.95 5.531 13.543 6.676 0.594 1.144 0.893 3.475 0.893 6.995 0 4.406-0.33 7.281-0.984 8.617-0.661 1.332-1.752 2.001-3.278 2.001-1.736 0-2.82-0.564-3.242-1.684-0.426-1.125-0.637-4.039-0.637-8.742z" fill="#fff"/>
   </g>
   <g transform="translate(643.44 424.73)">
    <path d="m0 0v-13.288h6.932v-13.353h-6.932v-45.148c0-5.551 0.285-8.647 0.859-9.281 0.573-0.636 2.957-0.952 7.153-0.952v-13.609h-10.364c-5.851 0-10.027 0.243-12.529 0.73-2.5 0.486-4.703 1.613-6.613 3.37-1.904 1.76-3.092 3.774-3.559 6.043-0.467 2.266-0.699 7.596-0.699 15.988v42.859h-5.533v13.353h5.533v13.288z" fill="#fff"/>
   </g>
   <g transform="translate(683.12 424.73)">
    <path d="m0 0v-13.288h6.93v-13.353h-6.93v-45.148c0-5.551 0.285-8.647 0.855-9.281 0.573-0.636 2.959-0.952 7.155-0.952v-13.609h-10.365c-5.85 0-10.026 0.243-12.526 0.73-2.502 0.486-4.705 1.613-6.613 3.37-1.906 1.76-3.092 3.774-3.561 6.043-0.466 2.266-0.697 7.596-0.697 15.988v42.859h-5.535v13.353h5.535v13.288z" fill="#fff"/>
   </g>
  </g>
 </g>
</svg>
