<svg xmlns="http://www.w3.org/2000/svg" 
    viewBox="0 0 557.08 104.47"
    width="297mm" height="80mm"
>
    
    <defs><style>.cls-1{fill:#ec008c;}.cls-2{fill:#fff;}</style></defs><title>FlyZermatt Logo</title><g id="Layer_2" data-name="Layer 2"><g id="Layer_1-2" data-name="Layer 1"><path class="cls-1" d="M0,0H45.34V20.6H26.77V40.12H43.3V59.71H26.77v43.23H0Z"/><path class="cls-1" d="M79.59,0V82.34H95.87v20.6H52.82V0Z"/><path class="cls-1" d="M149.16,0,129.64,65.68v37.26h-24.8V65.68L86,0h24.59q5.76,30.14,6.5,40.57Q119.35,24.08,124.57,0Z"/><path class="cls-2" d="M202.42,0V20.6L182.49,82.34h19.93v20.6H153.08V88l20.6-67.4H155.5V0Z"/><path class="cls-2" d="M240.53,48.51V42.34q0-6.54-.7-8.46A2.75,2.75,0,0,0,237,32c-1.78,0-2.88.54-3.31,1.62s-.63,4-.63,8.74v6.17Zm25.75,13.74H233V80.49c0,3.82.27,6.28.83,7.38A3.2,3.2,0,0,0,237,89.52c1.95,0,3.26-.73,3.91-2.19s1-4.29,1-8.49V67.71h24.35v6.23a56.34,56.34,0,0,1-1,12,24.61,24.61,0,0,1-4.61,9,22.54,22.54,0,0,1-9.19,7.15,35.57,35.57,0,0,1-14,2.38,40.55,40.55,0,0,1-14.37-2.35,23.05,23.05,0,0,1-9.69-6.45,23.41,23.41,0,0,1-4.8-9q-1.35-4.93-1.34-14.34V47.68q0-11.05,3-17.45a20.45,20.45,0,0,1,9.79-9.79A34.51,34.51,0,0,1,235.76,17q10.81,0,17.84,4.11A22.49,22.49,0,0,1,263.45,32q2.83,6.77,2.83,19Z"/><path class="cls-2" d="M297.36,18.56l-1,11.1q5.6-11.92,16.22-12.63v29.7q-7.05,0-10.36,1.91A8,8,0,0,0,298.13,54q-.76,3.39-.77,15.67v33.32H271.67V18.56Z"/><path class="cls-2" d="M344.66,18.56l-.44,8a20.69,20.69,0,0,1,7.12-7.17A18.47,18.47,0,0,1,360.75,17q10.31,0,16.21,9.56a23.24,23.24,0,0,1,7.32-7.17,17.52,17.52,0,0,1,9-2.39,17.7,17.7,0,0,1,10.83,3.18A14,14,0,0,1,409.65,28q1.2,4.62,1.2,15v60H385.93v-55q0-10.81-.73-13.39A3.23,3.23,0,0,0,381.8,32a3.36,3.36,0,0,0-3.53,2.54q-.79,2.55-.8,13.42v55H352.55V49.34q0-12.4-.61-14.88A3,3,0,0,0,348.61,32a3.83,3.83,0,0,0-2.93,1.3,5,5,0,0,0-1.34,3.18q-.12,1.88-.12,8v58.5H319.29V18.56Z"/><path class="cls-2" d="M448.78,62.82q-6.16,4.51-7.15,7.56a30,30,0,0,0-1,8.78q0,6.56.86,8.46a3.35,3.35,0,0,0,3.4,1.9c1.61,0,2.66-.49,3.15-1.49s.73-3.61.73-7.85Zm-8.14-11.57h-24.1V45.59q0-9.8,2.26-15.1t9.06-9.38Q434.67,17,445.54,17q13,0,19.64,4.61T473.13,33q1.33,6.7,1.34,27.62v42.35h-25V95.42a15.65,15.65,0,0,1-14.94,9,21.64,21.64,0,0,1-12.37-3.79q-5.62-3.78-5.63-16.56V77.19q0-9.48,3-12.91t14.82-8q12.64-5,13.54-6.68t.89-7q0-6.62-1-8.62a3.39,3.39,0,0,0-3.28-2q-2.61,0-3.24,1.68c-.43,1.13-.64,4-.64,8.75Z"/><path class="cls-2" d="M509.39,7.31V20.6h6.94V34h-6.94V79.1c0,5.55.29,8.65.86,9.28s3,1,7.16,1v13.61H507a73.89,73.89,0,0,1-12.53-.73,13.29,13.29,0,0,1-6.61-3.37,11.26,11.26,0,0,1-3.56-6q-.7-3.4-.7-16V34h-5.53V20.6h5.53V7.31Z"/><path class="cls-2" d="M549.07,7.31V20.6H556V34h-6.93V79.1c0,5.55.29,8.65.86,9.28s3,1,7.15,1v13.61H546.72a73.89,73.89,0,0,1-12.53-.73,13.29,13.29,0,0,1-6.61-3.37,11.2,11.2,0,0,1-3.56-6q-.71-3.4-.7-16V34h-5.53V20.6h5.53V7.31Z"/></g></g>
</svg>