<?xml version="1.0" encoding="UTF-8" standalone="no"?>
<!-- Created with Inkscape (http://www.inkscape.org/) -->

<svg
   xmlns:dc="http://purl.org/dc/elements/1.1/"
   xmlns:cc="http://creativecommons.org/ns#"
   xmlns:rdf="http://www.w3.org/1999/02/22-rdf-syntax-ns#"
   xmlns:svg="http://www.w3.org/2000/svg"
   xmlns="http://www.w3.org/2000/svg"
   xmlns:sodipodi="http://sodipodi.sourceforge.net/DTD/sodipodi-0.dtd"
   xmlns:inkscape="http://www.inkscape.org/namespaces/inkscape"
   version="1.1"
   id="svg2"
   xml:space="preserve"
   width="796.38623"
   height="184.47586"
   viewBox="0 0 796.38622 184.47586"
   sodipodi:docname="FLYZermatt Logo - for light backgrounds.svg"
   inkscape:version="0.92.3 (2405546, 2018-03-11)"><metadata
     id="metadata8"><rdf:RDF><cc:Work
         rdf:about=""><dc:format>image/svg+xml</dc:format><dc:type
           rdf:resource="http://purl.org/dc/dcmitype/StillImage" /><dc:title></dc:title></cc:Work></rdf:RDF></metadata><defs
     id="defs6"><filter
       style="color-interpolation-filters:sRGB"
       inkscape:label="Drop Shadow"
       id="filter1725"><feFlood
         flood-opacity="0.498039"
         flood-color="rgb(0,0,0)"
         result="flood"
         id="feFlood1715" /><feComposite
         in="flood"
         in2="SourceGraphic"
         operator="in"
         result="composite1"
         id="feComposite1717" /><feGaussianBlur
         in="composite1"
         stdDeviation="4"
         result="blur"
         id="feGaussianBlur1719" /><feOffset
         dx="-0"
         dy="6.93889e-16"
         result="offset"
         id="feOffset1721" /><feComposite
         in="SourceGraphic"
         in2="offset"
         operator="over"
         result="composite2"
         id="feComposite1723" /></filter><filter
       style="color-interpolation-filters:sRGB"
       inkscape:label="Drop Shadow"
       id="filter1737"><feFlood
         flood-opacity="0.498039"
         flood-color="rgb(0,0,0)"
         result="flood"
         id="feFlood1727" /><feComposite
         in="flood"
         in2="SourceGraphic"
         operator="in"
         result="composite1"
         id="feComposite1729" /><feGaussianBlur
         in="composite1"
         stdDeviation="4"
         result="blur"
         id="feGaussianBlur1731" /><feOffset
         dx="-0"
         dy="6.93889e-16"
         result="offset"
         id="feOffset1733" /><feComposite
         in="SourceGraphic"
         in2="offset"
         operator="over"
         result="composite2"
         id="feComposite1735" /></filter></defs><sodipodi:namedview
     pagecolor="#ffffff"
     bordercolor="#666666"
     borderopacity="1"
     objecttolerance="10"
     gridtolerance="10"
     guidetolerance="10"
     inkscape:pageopacity="0"
     inkscape:pageshadow="2"
     inkscape:window-width="2087"
     inkscape:window-height="1509"
     id="namedview4"
     showgrid="false"
     inkscape:zoom="1.5118272"
     inkscape:cx="427.65436"
     inkscape:cy="91.85033"
     inkscape:window-x="346"
     inkscape:window-y="169"
     inkscape:window-maximized="0"
     inkscape:current-layer="g10" /><g
     id="g10"
     inkscape:groupmode="layer"
     inkscape:label="FZ logo plain"
     transform="matrix(1.3333333,0,0,-1.3333333,-161.39467,502.63452)"><g
       id="g1611"
       style="stroke:#000000;stroke-opacity:1;filter:url(#filter1737)"><g
         transform="translate(142.23194,358.90771)"
         id="g14"
         style="stroke:#000000;stroke-opacity:1"><path
           inkscape:connector-curvature="0"
           id="path16"
           style="fill:#ec008c;fill-opacity:1;fill-rule:nonzero;stroke:#000000;stroke-opacity:1"
           d="M 0,0 H 45.338 V -20.6 H 26.769 V -40.121 H 43.302 V -59.706 H 26.769 v -43.236 H 0 Z" /></g><g
         transform="translate(221.82474,358.90771)"
         id="g18"
         style="stroke:#000000;stroke-opacity:1"><path
           inkscape:connector-curvature="0"
           id="path20"
           style="fill:#ec008c;fill-opacity:1;fill-rule:nonzero;stroke:#000000;stroke-opacity:1"
           d="m 0,0 v -82.343 h 16.276 v -20.599 H -26.771 V 0 Z" /></g><g
         transform="translate(291.39554,358.90771)"
         id="g30"
         style="stroke:#000000;stroke-opacity:1"><path
           inkscape:connector-curvature="0"
           id="path32"
           style="fill:#ec008c;fill-opacity:1;fill-rule:nonzero;stroke:#000000;stroke-opacity:1"
           d="m 0,0 -19.52,-65.683 v -37.259 h -24.798 v 37.259 L -63.14,0 h 24.592 c 3.842,-20.094 6.009,-33.615 6.5,-40.567 1.483,10.984 3.97,24.505 7.457,40.567 z" /></g></g><g
       id="g1641"
       style="stroke:#fff2f2;stroke-width:0.99975002;stroke-miterlimit:4;stroke-dasharray:none;stroke-opacity:1;paint-order:normal;filter:url(#filter1725)"><g
         transform="translate(344.65724,358.90771)"
         id="g34"
         style="stroke:#fff2f2;stroke-width:0.99975002;stroke-miterlimit:4;stroke-dasharray:none;stroke-opacity:1;paint-order:normal"><path
           inkscape:connector-curvature="0"
           id="path36"
           style="fill:#231f20;fill-opacity:1;fill-rule:nonzero;stroke:#fff2f2;stroke-width:0.99975002;stroke-miterlimit:4;stroke-dasharray:none;stroke-opacity:1;paint-order:normal"
           d="M 0,0 V -20.6 L -19.934,-82.343 H 0 v -20.599 h -49.343 v 14.94 L -28.74,-20.6 H -46.924 V 0 Z" /></g><g
         transform="translate(382.76804,310.39211)"
         id="g38"
         style="stroke:#fff2f2;stroke-width:0.99975002;stroke-miterlimit:4;stroke-dasharray:none;stroke-opacity:1;paint-order:normal"><path
           inkscape:connector-curvature="0"
           id="path40"
           style="fill:#231f20;fill-opacity:1;fill-rule:nonzero;stroke:#fff2f2;stroke-width:0.99975002;stroke-miterlimit:4;stroke-dasharray:none;stroke-opacity:1;paint-order:normal"
           d="m 0,0 v 6.169 c 0,4.365 -0.234,7.186 -0.7,8.458 -0.465,1.269 -1.421,1.906 -2.861,1.906 -1.781,0 -2.882,-0.54 -3.308,-1.622 C -7.291,13.83 -7.503,10.916 -7.503,6.169 V 0 Z M 25.751,-13.735 H -7.503 v -18.246 c 0,-3.815 0.274,-6.276 0.827,-7.376 0.549,-1.104 1.611,-1.654 3.179,-1.654 1.948,0 3.252,0.731 3.91,2.193 0.656,1.463 0.985,4.293 0.985,8.488 v 11.129 h 24.353 v -6.232 c 0,-5.213 -0.329,-9.219 -0.985,-12.017 -0.658,-2.797 -2.194,-5.786 -4.61,-8.965 -2.416,-3.179 -5.479,-5.564 -9.187,-7.153 -3.71,-1.59 -8.364,-2.385 -13.959,-2.385 -5.424,0 -10.214,0.785 -14.368,2.351 -4.155,1.569 -7.387,3.72 -9.698,6.455 -2.31,2.735 -3.91,5.745 -4.8,9.03 -0.892,3.284 -1.335,8.064 -1.335,14.337 V 0.828 c 0,7.374 0.995,13.195 2.989,17.453 1.991,4.261 5.255,7.525 9.791,9.793 4.537,2.267 9.75,3.404 15.643,3.404 7.206,0 13.15,-1.37 17.835,-4.103 4.684,-2.734 7.969,-6.359 9.854,-10.872 1.887,-4.517 2.83,-10.866 2.83,-19.045 z" /></g><g
         transform="translate(439.60064,340.34231)"
         id="g42"
         style="stroke:#fff2f2;stroke-width:0.99975002;stroke-miterlimit:4;stroke-dasharray:none;stroke-opacity:1;paint-order:normal"><path
           inkscape:connector-curvature="0"
           id="path44"
           style="fill:#231f20;fill-opacity:1;fill-rule:nonzero;stroke:#fff2f2;stroke-width:0.99975002;stroke-miterlimit:4;stroke-dasharray:none;stroke-opacity:1;paint-order:normal"
           d="M 0,0 -1.018,-11.098 C 2.713,-3.149 8.119,1.059 15.197,1.527 v -29.694 c -4.703,0 -8.16,-0.638 -10.363,-1.908 -2.205,-1.273 -3.563,-3.043 -4.07,-5.312 C 0.256,-37.653 0,-42.878 0,-51.061 V -84.377 H -25.687 V 0 Z" /></g><g
         transform="translate(486.89164,340.34231)"
         id="g46"
         style="stroke:#fff2f2;stroke-width:0.99975002;stroke-miterlimit:4;stroke-dasharray:none;stroke-opacity:1;paint-order:normal"><path
           inkscape:connector-curvature="0"
           id="path48"
           style="fill:#231f20;fill-opacity:1;fill-rule:nonzero;stroke:#fff2f2;stroke-width:0.99975002;stroke-miterlimit:4;stroke-dasharray:none;stroke-opacity:1;paint-order:normal"
           d="m 0,0 -0.445,-8.026 c 1.992,3.181 4.365,5.572 7.121,7.163 2.754,1.592 5.89,2.39 9.41,2.39 6.867,0 12.273,-3.188 16.215,-9.553 2.162,3.181 4.599,5.572 7.312,7.163 2.713,1.592 5.723,2.39 9.03,2.39 4.367,0 7.978,-1.061 10.839,-3.181 2.864,-2.118 4.698,-4.716 5.502,-7.787 0.803,-3.075 1.207,-8.068 1.207,-14.975 V -84.377 H 41.266 v 55 c 0,7.207 -0.245,11.669 -0.731,13.384 -0.488,1.718 -1.621,2.576 -3.4,2.576 -1.824,0 -3.002,-0.849 -3.53,-2.541 -0.531,-1.698 -0.796,-6.169 -0.796,-13.419 v -55 H 7.885 v 53.602 c 0,8.267 -0.201,13.224 -0.606,14.879 -0.402,1.654 -1.515,2.479 -3.336,2.479 -1.144,0 -2.123,-0.435 -2.927,-1.304 -0.805,-0.868 -1.25,-1.928 -1.334,-3.179 -0.086,-1.25 -0.127,-3.91 -0.127,-7.98 V -84.377 H -25.371 V 0 Z" /></g><g
         transform="translate(591.01664,296.08541)"
         id="g50"
         style="stroke:#fff2f2;stroke-width:0.99975002;stroke-miterlimit:4;stroke-dasharray:none;stroke-opacity:1;paint-order:normal"><path
           inkscape:connector-curvature="0"
           id="path52"
           style="fill:#231f20;fill-opacity:1;fill-rule:nonzero;stroke:#fff2f2;stroke-width:0.99975002;stroke-miterlimit:4;stroke-dasharray:none;stroke-opacity:1;paint-order:normal"
           d="m 0,0 c -4.113,-3.01 -6.498,-5.53 -7.154,-7.564 -0.658,-2.037 -0.987,-4.961 -0.987,-8.776 0,-4.367 0.286,-7.185 0.856,-8.456 0.574,-1.271 1.711,-1.908 3.404,-1.908 1.61,0 2.662,0.498 3.149,1.494 0.488,0.994 0.732,3.614 0.732,7.854 z m -8.141,11.572 h -24.097 v 5.659 c 0,6.529 0.752,11.562 2.256,15.104 1.503,3.537 4.523,6.664 9.062,9.378 4.535,2.713 10.426,4.071 17.676,4.071 8.687,0 15.238,-1.538 19.646,-4.612 4.41,-3.071 7.057,-6.846 7.95,-11.318 0.89,-4.473 1.335,-13.682 1.335,-27.625 V -40.12 H 0.697 v 7.519 c -1.568,-3.015 -3.592,-5.277 -6.07,-6.784 -2.482,-1.51 -5.438,-2.261 -8.871,-2.261 -4.494,0 -8.617,1.26 -12.369,3.782 -3.75,2.522 -5.625,8.047 -5.625,16.563 v 6.932 c 0,6.315 0.996,10.62 2.988,12.906 1.99,2.291 6.928,4.962 14.814,8.014 8.438,3.305 12.95,5.531 13.543,6.676 0.594,1.144 0.893,3.475 0.893,6.995 0,4.406 -0.33,7.281 -0.984,8.617 -0.661,1.332 -1.752,2.001 -3.278,2.001 -1.736,0 -2.82,-0.564 -3.242,-1.684 -0.426,-1.125 -0.637,-4.039 -0.637,-8.742 z" /></g><path
         id="path56"
         transform="matrix(0.75000002,0,0,-0.75000002,0,595.28002)"
         d="m 834.50391,324.91211 v 17.7168 h -7.37696 v 17.80468 h 7.37696 v 57.14453 c 0,11.18934 0.30897,18.29703 0.93164,21.31836 0.62266,3.02534 2.20742,5.70998 4.74609,8.05664 2.54667,2.34267 5.48307,3.84615 8.81641,4.49415 3.336,0.64933 8.90374,0.97265 16.70507,0.97265 h 13.82032 v -18.14648 c -5.59467,0 -8.77507,-0.41958 -9.53906,-1.26758 -0.76534,-0.84533 -1.14454,-4.97367 -1.14454,-12.375 v -60.19727 h 11.1875 4.05469 3.32617 v 57.14453 c 0,11.18934 0.3064,18.29703 0.92774,21.31836 0.62533,3.02534 2.20671,5.70998 4.74804,8.05664 2.544,2.34267 5.48236,3.84615 8.81836,4.49415 3.33334,0.64933 8.90118,0.97265 16.70118,0.97265 h 13.82031 v -18.14648 c -5.59467,0 -8.77702,-0.41958 -9.54102,-1.26758 -0.76,-0.84533 -1.13867,-4.97367 -1.13867,-12.375 v -60.19727 h 9.24024 v -17.80468 h -9.24024 v -17.7168 H 887.4082 v 17.7168 h -3.32617 -4.05469 -11.1875 v -17.7168 z"
         style="fill:#231f20;fill-opacity:1;fill-rule:nonzero;stroke:#fff2f2;stroke-width:1.33299994;stroke-miterlimit:4;stroke-dasharray:none;stroke-opacity:1;paint-order:normal"
         inkscape:connector-curvature="0" /></g></g></svg>